<?xml version="1.0" encoding="utf-8"?>
<!-- Generator: Adobe Illustrator 19.0.0, SVG Export Plug-In . SVG Version: 6.00 Build 0)  -->
<svg version="1.0" id="Layer_1" xmlns="http://www.w3.org/2000/svg" xmlns:xlink="http://www.w3.org/1999/xlink" x="0px" y="0px"
	 viewBox="-206 287.6 198.1 218.4" enable-background="new -206 287.6 198.1 218.4" xml:space="preserve">
<linearGradient id="XMLID_4_" gradientUnits="userSpaceOnUse" x1="-51.1084" y1="334.1511" x2="-210.0207" y2="395.054" gradientTransform="matrix(1 0 0 -1 0 795.2)">
	<stop  offset="0" style="stop-color:#003758"/>
	<stop  offset="0.2758" style="stop-color:#00597C"/>
	<stop  offset="1" style="stop-color:#6DA67E"/>
</linearGradient>
<polygon id="XMLID_68_" fill="url(#XMLID_4_)" points="-206,427.9 -84.2,506 -33.1,448.6 -183.7,352.6 "/>
<linearGradient id="XMLID_5_" gradientUnits="userSpaceOnUse" x1="4.3504" y1="603.3511" x2="25.9041" y2="553.1576" gradientTransform="matrix(0.8407 0.5416 0.5416 -0.8407 -412.7824 853.4793)">
	<stop  offset="0" style="stop-color:#005569"/>
	<stop  offset="0.337" style="stop-color:#3A8074"/>
	<stop  offset="0.5902" style="stop-color:#5F9C7B"/>
	<stop  offset="0.7241" style="stop-color:#6DA67E"/>
	<stop  offset="1" style="stop-color:#F6EB15"/>
</linearGradient>
<polygon id="XMLID_70_" fill="url(#XMLID_5_)" points="-144.2,338.2 -106,446.5 -25.7,389.9 -87.2,287.6 "/>
<linearGradient id="XMLID_8_" gradientUnits="userSpaceOnUse" x1="-214.6028" y1="400.4939" x2="-79.9521" y2="391.1432" gradientTransform="matrix(1 0 0 -1 0 795.2)">
	<stop  offset="0" style="stop-color:#8EB652"/>
	<stop  offset="0.5962" style="stop-color:#E2DF36"/>
	<stop  offset="1" style="stop-color:#F6EB15"/>
</linearGradient>
<polygon id="XMLID_66_" fill="url(#XMLID_8_)" points="-183.7,352.6 -25.7,389.9 -106,446.5 -206,427.9 "/>
<linearGradient id="XMLID_9_" gradientUnits="userSpaceOnUse" x1="44.6079" y1="388.5436" x2="94.5647" y2="563.7084" gradientTransform="matrix(0.8407 0.5416 0.5416 -0.8407 -412.7824 853.4793)">
	<stop  offset="0" style="stop-color:#019264"/>
	<stop  offset="0.4927" style="stop-color:#6DA67E"/>
	<stop  offset="0.7295" style="stop-color:#D7D743"/>
	<stop  offset="1" style="stop-color:#F6EB15"/>
</linearGradient>
<polygon id="XMLID_69_" fill="url(#XMLID_9_)" points="-83.6,453.8 -7.9,420.4 -84.2,506 "/>
<linearGradient id="XMLID_10_" gradientUnits="userSpaceOnUse" x1="-151.3325" y1="503.6466" x2="-42.8325" y2="438.6466" gradientTransform="matrix(1 0 0 -1 0 795.2)">
	<stop  offset="0" style="stop-color:#A6C136"/>
	<stop  offset="1" style="stop-color:#F6EB15"/>
</linearGradient>
<path id="XMLID_6_" fill="url(#XMLID_10_)" d="M-20.3,346.4l-66.9-58.8l-57,50.6l124.6,42.2L-20.3,346.4z M-55.7,352.4
	c-5.4,0-9.7-4.4-9.7-9.7c0-5.4,4.4-9.7,9.7-9.7c5.4,0,9.7,4.4,9.7,9.7C-46,348.1-50.4,352.4-55.7,352.4z"/>
<linearGradient id="XMLID_11_" gradientUnits="userSpaceOnUse" x1="-67.4375" y1="378.0337" x2="-174.9375" y2="448.0337" gradientTransform="matrix(1 0 0 -1 0 795.2)">
	<stop  offset="0" style="stop-color:#EFE625;stop-opacity:0"/>
	<stop  offset="1" style="stop-color:#D1DD30"/>
</linearGradient>
<polygon id="XMLID_2_" fill="url(#XMLID_11_)" points="-25.7,389.9 -106,446.5 -183.7,352.6 "/>
<linearGradient id="XMLID_12_" gradientUnits="userSpaceOnUse" x1="-71.1896" y1="340.7567" x2="-211.6896" y2="397.2567" gradientTransform="matrix(1 0 0 -1 0 795.2)">
	<stop  offset="0" style="stop-color:#003758;stop-opacity:0"/>
	<stop  offset="1" style="stop-color:#004662"/>
</linearGradient>
<polygon id="XMLID_1_" fill="url(#XMLID_12_)" points="-206,427.9 -206,427.9 -96.7,474.7 -68.7,425.9 -73,423.2 -106,446.5 "/>
<linearGradient id="XMLID_13_" gradientUnits="userSpaceOnUse" x1="-29.6425" y1="412.8794" x2="-157.3616" y2="464.2397" gradientTransform="matrix(1 0 0 -1 0 795.2)">
	<stop  offset="0" style="stop-color:#003758;stop-opacity:0"/>
	<stop  offset="1" style="stop-color:#004662"/>
</linearGradient>
<polygon id="XMLID_7_" fill="url(#XMLID_13_)" points="-144.2,338.2 -38.3,383.7 -37.5,374.3 "/>
<linearGradient id="XMLID_14_" gradientUnits="userSpaceOnUse" x1="-138.2504" y1="479.5257" x2="97.8753" y2="508.5759" gradientTransform="matrix(1 0 0 -1 0 795.2)">
	<stop  offset="0" style="stop-color:#FFF200;stop-opacity:0"/>
	<stop  offset="1" style="stop-color:#FFF100"/>
</linearGradient>
<polygon id="XMLID_29_" fill="url(#XMLID_14_)" points="-50.9,319.4 -87.2,287.6 -144.2,338.2 "/>
</svg>
